<svg aria-hidden="true" style="position: absolute; width: 0; height: 0; overflow: hidden;" version="1.1" xmlns="http://www.w3.org/2000/svg" xmlns:xlink="http://www.w3.org/1999/xlink">
<defs>
<symbol id="git-icon" viewBox="0 0 32 32">
<path d="M16 0c-8.789 0-16 7.211-16 16 0 7.499 5.262 14.312 12.25 16v-5.293c-0.276 0.070-0.593 0.109-0.919 0.109-0.398 0-0.781-0.059-1.143-0.169l0.028 0.007c-0.946-0.278-1.714-0.909-2.285-1.869-0.363-0.613-1.008-1.28-1.68-1.23l-0.165-1.867c1.454-0.125 2.71 0.886 3.456 2.139 0.333 0.558 0.715 0.885 1.205 1.029 0.472 0.141 0.981 0.074 1.573-0.136 0.149-1.186 0.693-1.629 1.104-2.256-4.168-0.621-5.829-2.832-6.488-4.576-0.874-2.318-0.405-5.213 1.139-7.043 0.030-0.035 0.085-0.128 0.064-0.192-0.709-2.141 0.154-3.91 0.186-4.098 0.818 0.24 0.95-0.243 3.552 1.336l0.448 0.27c0.189 0.112 0.128 0.048 0.317 0.032 1.003-0.282 2.157-0.452 3.349-0.469l0.010-0c1.136 0.014 2.272 0.176 3.403 0.483l0.146 0.016c-0.013-0.003 0.040-0.010 0.128-0.062 3.248-1.968 3.131-1.325 4.003-1.608 0.032 0.189 0.882 1.987 0.182 4.099-0.096 0.291 2.816 2.957 1.202 7.235-0.659 1.744-2.32 3.957-6.486 4.578 0.534 0.816 1.176 1.248 1.173 2.928v6.606c6.986-1.688 12.25-8.501 12.25-16 0-8.789-7.211-16-16-16z"></path>
</symbol>
<symbol id="bracket-icon" viewBox="0 0 32 32">
<path d="M23.714 4.148c1.428 0 2.777 0.385 4.047 1.156s2.302 1.879 3.095 3.324c0.762 1.445 1.143 3.148 1.143 5.107s-0.476 3.87-1.428 5.733c-0.318 0.674-0.889 1.541-1.715 2.601-0.857 1.060-1.65 1.975-2.38 2.746l-3 3.035-2.143-3.565c1.528-0.964 2.832-2.115 3.931-3.442l0.022-0.027c1.143-1.349 1.714-2.585 1.714-3.71 0-0.578-0.127-1.044-0.38-1.397-1.111 0.803-2.35 1.205-3.714 1.205-0.984 0-1.921-0.305-2.809-0.916-0.917-0.579-1.657-1.359-2.174-2.28l-0.016-0.032c-0.571-0.932-0.857-1.895-0.857-2.891 0-1.125 0.333-2.2 1-3.228 0.641-1.029 1.489-1.871 2.491-2.486l0.033-0.019c1.015-0.61 2.062-0.916 3.142-0.916zM6.619 4.148c1.428 0 2.777 0.385 4.047 1.156s2.302 1.879 3.095 3.324c0.762 1.445 1.143 3.148 1.143 5.107 0 1.381-0.175 2.617-0.524 3.71-0.35 1.124-0.952 2.296-1.81 3.517-0.825 1.156-1.603 2.12-2.333 2.891-0.73 0.803-2 2.136-3.81 3.999l-2.143-3.565c1.528-0.964 2.832-2.115 3.931-3.442l0.022-0.027c1.143-1.349 1.714-2.585 1.714-3.71 0-0.578-0.127-1.044-0.381-1.397-1.111 0.803-2.35 1.205-3.714 1.205-0.984 0-1.921-0.305-2.809-0.916-0.917-0.579-1.657-1.359-2.174-2.28l-0.016-0.032c-0.571-0.932-0.857-1.895-0.857-2.891 0-1.125 0.318-2.2 0.952-3.228 0.641-1.029 1.489-1.871 2.491-2.486l0.033-0.019c1.015-0.61 2.062-0.916 3.143-0.916z"></path>
</symbol>
<symbol id="apples-icon" viewBox="0 0 32 32">
<path d="M4.264 0.104c-0.954 0.47-1.007 2.736-0.114 4.932l0.205 0.504-0.431 0.111c-1.899 0.489-3.373 2.346-3.218 4.054l0.034 0.37-0.269 0.259c-0.534 0.514-0.674-0.502 1.497 10.805 1.977 10.299 2 10.403 2.341 10.69l0.202 0.17h16.231l0.202-0.17c0.111-0.093 0.256-0.292 0.322-0.441s0.139-0.263 0.162-0.252c0.023 0.011 0.225 0.108 0.449 0.217 0.839 0.409 2.053 0.562 2.994 0.377 0.352-0.069 0.517-0.075 0.688-0.023 0.372 0.112 1.848 0.089 2.318-0.037 4.107-1.098 5.681-8.345 2.194-10.106-0.917-0.463-2.321-0.609-3.18-0.33l-0.392 0.127 0.041-0.228c0.129-0.715 0.521-1.497 1.033-2.060 1.070-1.177-0.345-2.711-1.521-1.65-0.825 0.745-1.512 2.12-1.748 3.5-0.071 0.414-0.090 0.453-0.205 0.42-0.070-0.020-0.264-0.070-0.431-0.11s-0.318-0.11-0.335-0.154c-0.017-0.045 0.397-2.306 0.921-5.026 0.858-4.456 0.945-4.969 0.88-5.185-0.141-0.47-0.562-0.808-1.007-0.808h-0.192l0.049-0.484c0.272-2.66-0.658-4.466-2.638-5.124-0.685-0.228-2.143-0.247-2.766-0.037-0.46 0.155-0.451 0.178-0.231-0.58 0.21-0.723 0.537-1.336 0.958-1.79 0.823-0.889 0.455-2.047-0.649-2.047-1.058 0-2.419 2.141-2.692 4.234-0.049 0.372-0.049 0.373-0.558 0.191-0.304-0.108-0.542-0.137-1.262-0.149l-0.887-0.016-0.336-0.396c-1.757-2.071-4.681-2.047-6.391 0.052l-0.277 0.34-0.099-0.238c-0.323-0.772-0.432-1.704-0.317-2.717 0.111-0.973-0.731-1.614-1.574-1.198zM10.417 4.657c1.23 0.514 2.321 3.32 1.962 5.046l-0.075 0.359h-9.295l-0.044-0.35c-0.163-1.304 1.661-2.396 2.991-1.791 1.011 0.46 1.693 0.015 1.791-1.169 0.121-1.466 1.53-2.572 2.67-2.096zM15.031 6.703c0.392 0.197 0.681 0.452 0.941 0.828 0.593 0.861 1.353 0.864 2.026 0.008 0.752-0.957 1.618-1.251 2.701-0.917 0.945 0.292 1.305 1.434 0.981 3.111l-0.063 0.328h-6.96l-0.001-1.172c-0.001-1.002-0.022-1.252-0.141-1.724-0.077-0.304-0.139-0.58-0.139-0.614 0-0.085 0.344-0.006 0.656 0.151zM22.593 12.641c-0.52 3.869-3.744 6.745-8.208 7.322-5.692 0.736-10.645-2.291-11.443-6.994-0.041-0.241-0.084-0.487-0.096-0.547-0.021-0.104 0.483-0.109 9.884-0.109h9.906l-0.044 0.328zM5.531 20.359c4.507 2.804 11.067 2.567 15.203-0.548 0.318-0.24 0.578-0.412 0.578-0.383 0 0.045-0.262 1.411-0.346 1.804-0.020 0.091-0.129 0.182-0.323 0.268-2 0.885-2.637 4.006-1.403 6.869 0.254 0.59 0.259 0.646 0.103 1.303l-0.033 0.141h-6.682c-6.31 0-6.684-0.006-6.715-0.109-0.018-0.060-0.472-2.402-1.009-5.203s-0.991-5.159-1.010-5.239c-0.028-0.117 0.073-0.058 0.52 0.302 0.305 0.246 0.808 0.604 1.117 0.796zM23.411 23.525c0.354 0.162 0.668 0.449 0.94 0.859 0.501 0.754 1.337 0.71 1.963-0.103 0.648-0.842 1.358-1.097 2.364-0.848 2.039 0.503 0.936 5.442-1.348 6.036-0.48 0.125-0.95 0.116-1.542-0.030-0.491-0.121-0.495-0.121-1.031 0.008-1.52 0.364-2.568-0.182-3.323-1.729-0.799-1.636-0.757-3.691 0.085-4.137 0.548-0.29 1.331-0.314 1.893-0.056z"></path>
</symbol>
<symbol id="button-arrow-icon" viewBox="0 0 32 32">
<path d="M9.6 3.2l12.8 12.8-12.8 12.8"></path>
</symbol>
<symbol id="close-menu-button-icon" viewBox="0 0 32 32">
<path d="M2.52 2l26.96 28M2 29.48l28-26.96"></path>
</symbol>
<symbol id="cow-icon" viewBox="0 0 32 32">
<path d="M7.625 0.144c-0.356 0.188-0.563 0.563-0.563 1.006 0.006 0.813 0.213 1.556 0.625 2.2l0.181 0.294-0.344 0.381c-0.388 0.425-0.481 0.581-0.656 1.088-0.144 0.412-0.156 1.162-0.031 1.581 0.438 1.438 1.887 2.269 3.306 1.9 0.481-0.125 0.775-0.281 1.225-0.656l0.381-0.313 0.356 0.175c0.2 0.1 0.537 0.244 0.756 0.325l0.387 0.137v0.7c0 1.106 0.231 1.762 0.825 2.356s1.525 0.9 2.331 0.762c0.575-0.1 1.137-0.381 1.519-0.762 0.594-0.594 0.825-1.25 0.825-2.356v-0.7l0.394-0.137c0.212-0.081 0.55-0.225 0.75-0.325l0.356-0.175 0.381 0.313c0.45 0.375 0.744 0.531 1.225 0.656 1.419 0.369 2.869-0.463 3.306-1.9 0.125-0.419 0.113-1.169-0.031-1.581-0.175-0.506-0.269-0.662-0.656-1.087l-0.344-0.381 0.181-0.294c0.413-0.644 0.619-1.387 0.625-2.2 0-0.444-0.206-0.819-0.563-1.006l-0.269-0.144h-16.212l-0.269 0.144zM22.625 2.1c0 0.019-0.181 0.313-0.406 0.663-0.663 1.031-0.637 1.256 0.244 2.169 0.319 0.331 0.613 0.662 0.656 0.737 0.238 0.463-0.238 1.038-0.762 0.919-0.125-0.025-0.4-0.244-0.8-0.631-0.8-0.775-1.075-0.862-1.688-0.519-0.706 0.4-1.606 0.806-2.044 0.925-0.619 0.175-0.831 0.306-0.994 0.638-0.131 0.256-0.144 0.362-0.144 1.362 0 1.231-0.050 1.431-0.406 1.6-0.256 0.125-0.306 0.125-0.563 0-0.356-0.169-0.406-0.369-0.406-1.6 0-1-0.012-1.106-0.137-1.362-0.169-0.325-0.381-0.463-1-0.638-0.537-0.15-1.331-0.494-1.769-0.775-0.412-0.263-0.775-0.362-1.063-0.313-0.188 0.037-0.375 0.181-0.875 0.662-0.412 0.394-0.706 0.625-0.831 0.65-0.519 0.119-0.994-0.463-0.756-0.919 0.044-0.075 0.338-0.406 0.656-0.737 0.881-0.912 0.906-1.138 0.244-2.169-0.225-0.35-0.406-0.644-0.406-0.663 0-0.025 2.981-0.038 6.625-0.038s6.625 0.013 6.625 0.038zM5.744 13.206c-0.319 0.213-0.494 0.512-0.494 0.844 0 0.225 3.175 16.925 3.287 17.275 0.056 0.194 0.287 0.425 0.531 0.55 0.231 0.125 0.394 0.125 6.931 0.125s6.7 0 6.931-0.125c0.244-0.125 0.475-0.356 0.531-0.55 0.113-0.35 3.288-17.050 3.288-17.275 0-0.331-0.175-0.631-0.494-0.844l-0.212-0.144h-20.087l-0.213 0.144zM24.281 15.481c-0.063 0.5-0.425 1.587-0.694 2.081-1.306 2.375-3.781 3.819-6.85 3.988-2.319 0.131-4.281-0.331-5.925-1.394-0.95-0.613-1.744-1.45-2.306-2.438-0.313-0.544-0.725-1.712-0.787-2.238l-0.044-0.356h16.65l-0.044 0.356zM9.719 21.919c2.681 1.775 6.688 2.244 10.063 1.169 1.125-0.356 2.275-0.956 3.238-1.688 0.281-0.219 0.3-0.219 0.269-0.081-0.019 0.081-0.387 1.994-0.819 4.244s-0.794 4.156-0.813 4.231l-0.031 0.144h-11.25l-0.031-0.144c-0.019-0.075-0.381-1.981-0.813-4.231s-0.8-4.163-0.819-4.244c-0.031-0.137-0.012-0.137 0.269 0.081 0.162 0.125 0.5 0.356 0.738 0.519z"></path>
</symbol>
<symbol id="facebook-icon" viewBox="0 0 32 32">
<path d="M22.143 15.971h-4.033v14.865h-6.112v-14.865h-2.906v-5.222h2.906v-3.382c0-2.417 1.142-6.204 6.167-6.204l4.527 0.019v5.072h-3.284c-0.538 0-1.297 0.272-1.297 1.425v3.073h4.567l-0.534 5.219z"></path>
</symbol>
<symbol id="home-icon" viewBox="0 0 32 32">
<path d="M31.618 15.643c0.237-0.258 0.382-0.603 0.382-0.983 0-0.438-0.194-0.832-0.501-1.098l-0.002-0.002-13.637-11.931c-0.293-0.248-0.676-0.399-1.093-0.399-0.431 0-0.824 0.16-1.124 0.425l0.002-0.002-13.681 12.544c-0.292 0.266-0.474 0.647-0.474 1.071 0 0.391 0.155 0.746 0.408 1.007l-0-0 0.345 0.357c0.566 0.591 1.487 0.665 2.053 0.158l1.022-0.916v13.406c0 0.825 0.665 1.489 1.489 1.489h5.329c0.822 0 1.489-0.665 1.489-1.489v-9.378h6.806v9.378c-0.012 0.822 0.576 1.489 1.398 1.489h5.652c0.822 0 1.487-0.665 1.487-1.489v-13.218l0.633 0.556c0.347 0.305 1.078 0.059 1.63-0.549l0.389-0.426z"></path>
</symbol>
<symbol id="ice-cream-icon" viewBox="0 0 32 32">
<path d="M8.3 0.094c-2.894 0.475-5.188 2.644-6.019 5.688-1.081 3.963 0.462 8 4.575 11.969 1.519 1.469 4.156 3.563 6 4.756l0.331 0.212v9.281h5.625v-9.281l0.331-0.212c1.175-0.762 3.3-2.369 4.519-3.413 4.788-4.1 6.875-8.094 6.306-12.094-0.356-2.506-1.569-4.537-3.462-5.813-2.394-1.606-5.731-1.55-8.006 0.144-0.462 0.338-1.188 1.044-1.581 1.538-0.375 0.45-0.556 0.569-0.919 0.569s-0.544-0.119-0.919-0.569c-0.394-0.494-1.119-1.2-1.581-1.538-0.725-0.537-1.769-1-2.656-1.181-0.675-0.131-1.906-0.163-2.544-0.056zM10.325 1.962c1.381 0.263 2.213 0.813 3.569 2.362 0.344 0.394 0.512 0.525 0.9 0.719 0.475 0.231 0.494 0.237 1.206 0.237s0.731-0.006 1.206-0.237c0.387-0.194 0.556-0.325 0.9-0.719 1.394-1.587 2.281-2.156 3.731-2.388 0.925-0.15 2.212 0.050 3.056 0.481 1.619 0.813 2.712 2.325 3.144 4.331 0.163 0.75 0.163 2.206 0 2.969-0.144 0.688-0.387 1.412-0.494 1.481-0.137 0.088-0.481 0.050-0.738-0.075-0.306-0.162-0.456-0.475-0.544-1.137-0.156-1.269-1.081-2.225-2.35-2.438-1.444-0.237-2.881 0.787-3.163 2.256-0.031 0.188-0.063 0.838-0.063 1.456 0 0.994-0.012 1.144-0.125 1.363-0.144 0.281-0.5 0.5-0.813 0.5s-0.669-0.219-0.813-0.5c-0.113-0.219-0.125-0.369-0.125-1.363 0-0.619-0.031-1.269-0.063-1.456-0.281-1.469-1.719-2.494-3.162-2.256-1.188 0.194-2.119 1.094-2.338 2.256-0.031 0.188-0.063 0.838-0.063 1.456 0 0.994-0.012 1.144-0.125 1.363-0.144 0.281-0.5 0.5-0.813 0.5s-0.669-0.219-0.813-0.5c-0.113-0.219-0.125-0.369-0.125-1.363 0-0.619-0.031-1.269-0.063-1.456-0.281-1.469-1.719-2.494-3.162-2.256-1.269 0.213-2.194 1.169-2.35 2.438-0.088 0.662-0.237 0.975-0.544 1.137-0.256 0.125-0.6 0.162-0.737 0.075-0.106-0.069-0.35-0.794-0.494-1.481-0.163-0.762-0.163-2.219 0-2.969 0.562-2.619 2.3-4.419 4.644-4.813 0.488-0.081 1.225-0.069 1.719 0.025zM8.938 9.5c0.438 0.225 0.5 0.438 0.5 1.738 0 0.619 0.031 1.269 0.063 1.456 0.281 1.469 1.719 2.494 3.162 2.256 1.188-0.194 2.119-1.094 2.338-2.256 0.031-0.188 0.063-0.838 0.063-1.456 0-1.3 0.063-1.512 0.5-1.738 0.313-0.156 0.563-0.156 0.875 0 0.438 0.225 0.5 0.438 0.5 1.738 0 0.619 0.031 1.269 0.063 1.456 0.219 1.162 1.15 2.063 2.337 2.256 1.444 0.238 2.881-0.787 3.163-2.256 0.031-0.188 0.063-0.838 0.063-1.456 0-0.994 0.012-1.144 0.125-1.363 0.144-0.281 0.5-0.5 0.813-0.5 0.488 0 0.938 0.463 0.938 0.963 0 0.988 0.675 2.050 1.575 2.475 0.219 0.106 0.425 0.188 0.469 0.188 0.169 0 0.125 0.131-0.181 0.569-1.044 1.494-2.788 3.263-4.831 4.906-0.919 0.738-2.219 1.694-3.3 2.425-1.069 0.712-1.413 0.85-2.169 0.85s-1.1-0.137-2.169-0.85c-3.656-2.462-6.556-5.075-8.131-7.331-0.306-0.438-0.35-0.569-0.181-0.569 0.044 0 0.25-0.081 0.469-0.188 0.9-0.425 1.575-1.488 1.575-2.475 0-0.325 0.213-0.688 0.487-0.831 0.3-0.162 0.581-0.162 0.887-0.006zM16.938 26.856v3.269h-1.875v-6.531h1.875v3.262z"></path>
</symbol>
<symbol id="menu-button-icon" viewBox="0 0 32 32">
<path d="M0 6.4h32M0 16h32M0 25.6h32"></path>
</symbol>
<symbol id="telegram-icon" viewBox="0 0 32 32">
<path d="M12.612 19.671l-0.49 6.444c0.703 0 1.007-0.282 1.372-0.62l3.292-2.938 6.822 4.665c1.251 0.65 2.134 0.307 2.473-1.075l4.477-19.587c0.399-1.727-0.669-2.401-1.887-1.978l-26.323 9.407c-1.796 0.652-1.77 1.585-0.305 2.012l6.729 1.952 15.632-9.129c0.736-0.455 1.405-0.204 0.855 0.252l-12.647 10.596z"></path>
</symbol>
</defs>
</svg>
